<?xml version="1.0" encoding="UTF-8"?>
<svg id="Layer_2" data-name="Layer 2" xmlns="http://www.w3.org/2000/svg" viewBox="0 0 101.5 101.5">
  <defs>
    <style>
      .cls-1 {
        fill: #fff;
      }
    </style>
  </defs>
  <g id="Layer_1-2" data-name="Layer 1">
    <g>
      <g>
        <path class="cls-1" d="M91.35,26.99c-.22,1.38-1.36,4.09-1.39,4.98l-2.87-4.52c-1.84-2.06-3.81-3.98-6.07-5.59-1.37-.97-6.05-4.42-6.94-1.39-.76,2.54,2.34,3.21,3.97,4.36,1.7,1.19,3.59,2.73,4.93,4.29.19.22,1.48,1.76,1.29,1.91l2.31,3.95c-3.91.4-7.36.69-11.22-.29-10.82-2.76-14.75-12.69-15.16-23-.06-1.51-.43-5.02,1.45-5.46,1.73-.38,2.56.87,4,1.53,10.09,4.62,28.41,2.67,25.7,19.22Z"/>
        <path class="cls-1" d="M89.82,44.56c-1.89-.41-1.7-4.74-2.15-6.56-.13-.55-.63-2.48-1.02-2.92-.02-.04-.05-.06-.07-.07l3.38-3.01c.01.26.53,1.59,1,2.78.16.4.31.79.42,1.12.06.18.12.35.16.48.04.1.07.18.08.25.55,2.14,2.31,8.84-1.79,7.93Z"/>
        <polygon points="89.97 31.98 89.96 31.98 89.96 31.97 89.97 31.98"/>
      </g>
      <path class="cls-1" d="M78.31,72.02l7.25-4.35c.53-1.84,1.14-8.57,4.44-5.95,1.59,1.26-.07,4.11-.09,5.76,1.79.31,5.03.25,5.07,2.64.06,3.78-5.38.98-7.34.99l-7.3,4.43.16.52,7.14,4.41c1.84.17,5.8-2.19,7.04-.24,1.81,2.84-2.85,3.89-4.76,3.88.02,1.73,1.79,4.63-.07,5.85-3.36,2.2-3.65-4.23-4.28-6.04l-7.25-4.35v8.44c1.21,1.65,5.32,3.84,3.65,6.17-1.76,2.45-4.27-1.11-5.57-2.24-.86-.15-3.4,4.9-5.64,2.38-2.01-2.26,2.35-4.7,3.53-6.31v-8.44l-7.25,4.35c-.63,1.81-.91,8.24-4.28,6.04-1.86-1.22-.09-4.12-.07-5.85-1.91.01-6.58-1.04-4.76-3.88,1.21-1.9,5.23.34,7.04.24l7.14-4.41.16-.52-7.3-4.43c-1.99-.07-7.41,2.83-7.35-1,.04-2.39,3.28-2.33,5.07-2.64-.02-1.65-1.68-4.49-.09-5.76,3.29-2.63,3.91,4.11,4.44,5.95l7.25,4.35v-8.44c-1.21-1.65-5.32-3.84-3.65-6.17,1.76-2.45,4.27,1.11,5.57,2.24.86.15,3.4-4.9,5.64-2.38,2.01,2.26-2.35,4.7-3.53,6.31v8.44Z"/>
      <g>
        <path class="cls-1" d="M26.45,32.28c-9.34,1.23-10.76-12.39-2.38-13.72,9.59-1.51,11.06,12.57,2.38,13.72Z"/>
        <path class="cls-1" d="M24.81,6.23c.9-.2,1.96.1,2.35,1,.29.69.32,5.09.13,5.92-.43,1.94-3.61,2.01-3.89-.43-.19-1.6-.51-6.07,1.42-6.49Z"/>
        <path class="cls-1" d="M7.56,23.48c.78-.18,5.03-.17,5.75.06,1.76.55,1.65,3.5-.4,3.82-.87.14-4.8.14-5.54-.1-1.71-.54-1.62-3.37.19-3.78Z"/>
        <path class="cls-1" d="M37.61,23.48c.78-.18,5.03-.17,5.75.06,1.76.55,1.65,3.5-.4,3.82-.87.14-4.8.14-5.54-.1-1.71-.54-1.62-3.37.19-3.78Z"/>
        <path class="cls-1" d="M24.81,36.29c.9-.2,1.96.1,2.35,1,.29.69.32,5.09.13,5.92-.43,1.94-3.61,2.01-3.89-.43-.19-1.6-.51-6.07,1.42-6.49Z"/>
        <path class="cls-1" d="M13.17,11.22c1.16,0,4.88,3.64,5.04,4.71.28,1.89-1.37,2.91-3.04,2.05-.39-.2-3.3-3.14-3.57-3.58-.84-1.4-.13-3.18,1.56-3.18Z"/>
        <path class="cls-1" d="M36.88,11.41c2.01-.45,3.12.98,2.35,2.84-.15.36-3.28,3.53-3.66,3.73-1.94,1-3.7-.57-2.86-2.62.23-.57,3.59-3.82,4.18-3.95Z"/>
        <path class="cls-1" d="M15.69,32.6c1.88-.43,3.08,1.06,2.35,2.84-.15.36-3.28,3.53-3.66,3.73-2,1.04-3.75-.46-2.86-2.62.23-.57,3.59-3.82,4.18-3.95Z"/>
        <path class="cls-1" d="M33.67,32.6c.64-.19,1.32-.07,1.89.23.34.17,3.23,3.05,3.47,3.43,1.23,1.96-.26,3.93-2.51,3-.35-.14-3.37-3.11-3.62-3.52-.66-1.05-.51-2.76.78-3.14Z"/>
      </g>
      <path class="cls-1" d="M42.97,78.74c-1.21-1.82-3.13-2.38-4.95-3.37,11.02-3.31,4.23-18.85-5.55-13.63l-3.01,2.81c.08-1.97-.2-3.75-1.44-5.34-4.22-5.46-13.9-1.86-13.3,5.22.14,1.74,1.25,3.09,1.9,4.64-5.79-1.76-10.52,1.9-10,7.97.48,5.46,5.69,7.43,10.47,5.82-4.5,6.15.17,13.31,7.62,12.02,3.97-.69,5.65-4.51,5.46-8.21.7.3.91,1.08,1.42,1.55,6.6,6.26,15.87-2.73,11.38-9.48ZM25.78,80c-3.65-.59-3.25-6.66.5-6.8,5.18-.19,4.96,7.67-.5,6.8Z"/>
      <g>
        <g>
          <path class="cls-1" d="M50.75,101.13c-.5,0-1.04-.36-1.09-1.16V1.53c-.01-.29.1-.57.31-.79.22-.23.52-.36.81-.36.17,0,.33.05.48.14.41.26.59.59.58,1.02v98.45c-.06.8-.6,1.15-1.09,1.15Z"/>
          <path class="cls-1" d="M50.77.75c.1,0,.2.03.28.08.29.19.41.39.41.69v98.46c-.04.56-.41.77-.71.77s-.68-.21-.72-.81V1.53c-.01-.27.12-.45.21-.54.15-.16.35-.25.54-.25M50.77,0c-.39,0-.79.18-1.08.48-.28.29-.43.68-.41,1.09v98.37s0,.03,0,.03v.03c.07,1.04.81,1.51,1.47,1.51s1.39-.5,1.46-1.47v-.03s0-.03,0-.03V1.52c.01-.54-.24-.99-.75-1.32-.21-.13-.45-.2-.69-.2h0Z"/>
        </g>
        <g>
          <path class="cls-1" d="M1.53,51.84c-.32,0-.58-.11-.79-.31-.23-.22-.36-.51-.36-.81,0-.17.05-.34.14-.48.25-.39.58-.58.99-.58h98.48c.8.06,1.15.61,1.15,1.09s-.36,1.04-1.16,1.09h-.01s-98.42,0-98.42,0Z"/>
          <path class="cls-1" d="M1.5,50.03s.01,0,.02,0h98.46c.56.04.77.41.77.71s-.21.68-.81.72H1.53s-.02,0-.03,0c-.25,0-.42-.13-.5-.2-.16-.15-.25-.35-.25-.54,0-.1.03-.2.08-.28.18-.28.38-.41.67-.41M1.5,49.28c-.54,0-.98.25-1.3.75-.13.21-.2.45-.2.69,0,.39.18.79.48,1.08.28.27.64.41,1.02.41h.07s98.37,0,98.37,0h.05c1.04-.07,1.51-.81,1.51-1.47s-.5-1.39-1.47-1.46h-.03s-.03,0-.03,0H1.5Z"/>
        </g>
      </g>
    </g>
  </g>
</svg>