<?xml version="1.0" encoding="UTF-8"?>
<svg id="Layer_2" data-name="Layer 2" xmlns="http://www.w3.org/2000/svg" viewBox="0 0 101.5 101.5">
  <defs>
    <style>
      .cls-1 {
        fill: #fff;
      }
    </style>
  </defs>
  <g id="Layer_1-2" data-name="Layer 1">
    <g>
      <path class="cls-1" d="M78.31,72.02l7.25-4.35c.53-1.84,1.14-8.57,4.44-5.95,1.59,1.26-.07,4.11-.09,5.76,1.79.31,5.03.25,5.07,2.64.06,3.78-5.38.98-7.34.99l-7.3,4.43.16.52,7.14,4.41c1.84.17,5.8-2.19,7.04-.24,1.81,2.84-2.85,3.89-4.76,3.88.02,1.73,1.79,4.63-.07,5.85-3.36,2.2-3.65-4.23-4.28-6.04l-7.25-4.35v8.44c1.21,1.65,5.32,3.84,3.65,6.17-1.76,2.45-4.27-1.11-5.57-2.24-.86-.15-3.4,4.9-5.64,2.38-2.01-2.26,2.35-4.7,3.53-6.31v-8.44l-7.25,4.35c-.63,1.81-.91,8.24-4.28,6.04-1.86-1.22-.09-4.12-.07-5.85-1.91.01-6.58-1.04-4.76-3.88,1.21-1.9,5.23.34,7.04.24l7.14-4.41.16-.52-7.3-4.43c-1.99-.07-7.41,2.83-7.35-1,.04-2.39,3.28-2.33,5.07-2.64-.02-1.65-1.68-4.49-.09-5.76,3.29-2.63,3.91,4.11,4.44,5.95l7.25,4.35v-8.44c-1.21-1.65-5.32-3.84-3.65-6.17,1.76-2.45,4.27,1.11,5.57,2.24.86.15,3.4-4.9,5.64-2.38,2.01,2.26-2.35,4.7-3.53,6.31v8.44Z"/>
      <path class="cls-1" d="M61.65,6.25c1.72-.39,2.55.87,4,1.53,10.09,4.61,28.4,2.67,25.71,19.22-.23,1.38-1.37,4.12-1.4,4.99-.01.38,1.42,3.73,1.66,4.64.55,2.15,2.3,8.84-1.79,7.94-1.89-.41-1.7-4.74-2.15-6.56-.15-.59-.7-2.75-1.1-3-3.91.39-7.35.68-11.22-.3-10.82-2.75-14.75-12.69-15.16-23-.06-1.5-.43-5.02,1.46-5.45ZM87.08,27.45c1.27-7.13-.6-8.99-6.86-11.19-5.1-1.79-10.6-2.52-15.67-4.43-.41,11.86,7.28,21.15,19.72,19.21.19-.15-1.1-1.7-1.29-1.91-1.34-1.57-3.24-3.1-4.93-4.29-1.63-1.16-4.73-1.83-3.98-4.37.9-3.03,5.58.43,6.94,1.4,2.25,1.6,4.23,3.53,6.06,5.59Z"/>
      <g>
        <path class="cls-1" d="M24.07,18.56c9.6-1.51,11.06,12.58,2.38,13.72-9.35,1.23-10.77-12.4-2.38-13.72ZM24.81,22.5c-3.64.7-2.76,6.29.9,5.86,3.88-.46,3.03-6.61-.9-5.86Z"/>
        <path class="cls-1" d="M24.81,6.23c.9-.2,1.96.1,2.35,1,.29.69.32,5.09.13,5.92-.43,1.94-3.61,2.01-3.89-.43-.19-1.6-.51-6.07,1.42-6.49Z"/>
        <path class="cls-1" d="M7.56,23.48c.78-.18,5.03-.17,5.75.06,1.76.55,1.65,3.5-.4,3.82-.87.14-4.8.14-5.54-.1-1.71-.54-1.62-3.37.19-3.78Z"/>
        <path class="cls-1" d="M37.61,23.48c.78-.18,5.03-.17,5.75.06,1.76.55,1.65,3.5-.4,3.82-.87.14-4.8.14-5.54-.1-1.71-.54-1.62-3.37.19-3.78Z"/>
        <path class="cls-1" d="M24.81,36.29c.9-.2,1.96.1,2.35,1,.29.69.32,5.09.13,5.92-.43,1.94-3.61,2.01-3.89-.43-.19-1.6-.51-6.07,1.42-6.49Z"/>
        <path class="cls-1" d="M13.17,11.22c1.16,0,4.88,3.64,5.04,4.71.28,1.89-1.37,2.91-3.04,2.05-.39-.2-3.3-3.14-3.57-3.58-.84-1.4-.13-3.18,1.56-3.18Z"/>
        <path class="cls-1" d="M36.88,11.41c2.01-.45,3.12.98,2.35,2.84-.15.36-3.28,3.53-3.66,3.73-1.94,1-3.7-.57-2.86-2.62.23-.57,3.59-3.82,4.18-3.95Z"/>
        <path class="cls-1" d="M15.69,32.6c1.88-.43,3.08,1.06,2.35,2.84-.15.36-3.28,3.53-3.66,3.73-2,1.04-3.75-.46-2.86-2.62.23-.57,3.59-3.82,4.18-3.95Z"/>
        <path class="cls-1" d="M33.67,32.6c.64-.19,1.32-.07,1.89.23.34.17,3.23,3.05,3.47,3.43,1.23,1.96-.26,3.93-2.51,3-.35-.14-3.37-3.11-3.62-3.52-.66-1.05-.51-2.76.78-3.14Z"/>
      </g>
      <path class="cls-1" d="M29.45,64.56l3.01-2.81c9.78-5.23,16.58,10.32,5.55,13.63,1.83.99,3.74,1.54,4.95,3.37,4.49,6.75-4.78,15.74-11.38,9.48-.5-.48-.72-1.26-1.41-1.55.19,3.7-1.5,7.53-5.46,8.21-7.45,1.28-12.12-5.87-7.62-12.02-4.78,1.6-10-.36-10.47-5.82-.53-6.08,4.2-9.73,9.99-7.97-.64-1.55-1.75-2.9-1.9-4.64-.6-7.08,9.08-10.68,13.3-5.22,1.23,1.59,1.52,3.36,1.43,5.34ZM21.07,60.1c-1.85.38-3.27,2.39-2.97,4.29.22,1.36,3.17,5.45,4.33,6.13.99.58,2.1-.57,3.23-.6l.19-.29c.71-3.94,1.36-10.8-4.78-9.53ZM30.21,70.94l2.44,2.34c1.92-.33,6.36-1.28,7.31-3.08,1.69-3.2-1.94-7.43-5.22-5.93-1.14.53-5.15,5.63-4.54,6.67ZM19.92,78.09c-.26-1.3-.06-2.35.21-3.63-.18-.97-5.9-2.58-6.93-2.51-3.19.22-4.21,4.68-2.28,7,2.11,2.53,6.55.16,9-.85ZM26.28,73.21c-3.75.14-4.15,6.22-.5,6.79,5.47.87,5.68-6.99.5-6.79ZM33.28,77.9c-.21,1.46-.98,2.79-2.06,3.79v.46c1.74,3.24,5.51,7.36,8.69,2.98,3.3-4.54-2.9-7.22-6.63-7.23ZM22.2,81.97c-2.19,2.33-5.64,6.36-1.86,8.94,3.03,2.07,6.15.45,6.49-3.17.08-.9.28-3.86-.53-4.22-1.11-.5-2.99-.35-4.11-1.54Z"/>
      <g>
        <g>
          <path class="cls-1" d="M50.75,101.13c-.5,0-1.03-.36-1.09-1.16V1.53c-.02-.39.19-.67.31-.8.22-.23.51-.36.81-.36.17,0,.33.05.48.14.41.26.59.59.58,1.02v98.45c-.06.8-.61,1.15-1.09,1.15Z"/>
          <path class="cls-1" d="M50.77.75c.1,0,.2.03.28.08.29.19.41.39.41.69v98.46c-.04.56-.41.77-.71.77s-.68-.21-.72-.81V1.53c-.01-.27.12-.45.21-.54.15-.16.35-.25.54-.25M50.77,0c-.39,0-.79.18-1.08.48-.28.29-.43.68-.41,1.09v98.37s0,.03,0,.03v.03c.07,1.04.81,1.51,1.47,1.51s1.39-.5,1.46-1.47v-.03s0-.03,0-.03V1.52c.01-.54-.24-.99-.75-1.32-.21-.13-.45-.2-.69-.2h0Z"/>
        </g>
        <g>
          <path class="cls-1" d="M1.53,51.84c-.32,0-.58-.11-.79-.31-.23-.22-.36-.51-.36-.81,0-.17.05-.34.14-.48.25-.39.58-.58.99-.58h98.48c.8.06,1.15.61,1.15,1.09s-.36,1.04-1.16,1.09h-.01s-98.42,0-98.42,0Z"/>
          <path class="cls-1" d="M1.5,50.03s.01,0,.02,0h98.46c.56.04.77.41.77.71s-.21.68-.81.72H1.53s-.02,0-.03,0c-.25,0-.42-.13-.5-.2-.16-.15-.25-.35-.25-.54,0-.1.03-.2.08-.28.18-.28.38-.41.67-.41M1.5,49.28c-.54,0-.98.25-1.3.75-.13.21-.2.45-.2.69,0,.39.18.79.48,1.08.28.27.64.41,1.02.41h.07s98.37,0,98.37,0h.05c1.04-.07,1.51-.81,1.51-1.47s-.5-1.39-1.47-1.46h-.03s-.03,0-.03,0H1.5Z"/>
        </g>
      </g>
    </g>
  </g>
</svg>